<svg width="162" height="54" viewBox="0 0 162 54" fill="none" xmlns="http://www.w3.org/2000/svg">
<path d="M31.9187 21.7C31.9625 23.025 32.3128 24.2617 32.882 25.3217H35.1587C35.5966 25.3217 35.9906 24.9683 35.9906 24.4825V23.025C35.9906 22.5833 35.9468 21.8325 35.9468 21.3908C35.9468 21.3908 35.6403 17.3275 34.9398 15.2958C34.8522 15.075 34.7647 14.8983 34.7209 14.6775C34.5457 14.8542 34.4144 15.0308 34.2393 15.2075C32.663 17.0625 31.8749 19.3592 31.9187 21.7Z" fill="#E61423"/>
<path d="M32.7943 14.4567C33.1883 13.9709 33.6262 13.5292 34.064 13.1317C33.4948 11.9392 32.7943 10.8792 31.9624 9.95173C30.6927 8.49423 29.1164 7.3459 27.2337 6.5509C25.3948 5.7559 23.2932 5.3584 21.0602 5.3584C18.6083 5.3584 16.3316 5.7559 14.1424 6.5509C11.997 7.3459 10.1143 8.49423 8.49428 9.95173C6.91807 11.4092 5.64834 13.2201 4.72888 15.2517C3.80942 17.3276 3.37158 19.6242 3.37158 22.1859C3.37158 24.7476 3.80942 27.0442 4.72888 29.1201C5.64834 31.1959 6.91807 32.9626 8.49428 34.4201C10.0705 35.8776 11.9532 37.0259 14.1424 37.8209C16.2878 38.6159 18.6083 39.0134 21.0602 39.0134C23.6435 39.0134 26.1391 38.4834 28.5473 37.3792C30.9554 36.2751 33.9327 33.2717 33.9327 33.2717C34.2392 32.9626 34.1954 32.4767 33.8451 32.2117L28.2846 28.1042C27.9343 27.8392 27.3651 27.8834 27.1024 28.2367C27.1024 28.2367 25.8327 29.6942 24.7381 30.4451C23.6435 31.1517 22.2424 31.5492 20.6224 31.5492C18.6959 31.5492 17.0759 30.9751 15.7624 29.8709C15.1932 29.3851 14.5802 28.6342 14.1862 27.9276C13.6608 27.0001 13.4856 26.1167 13.4856 26.1167C13.3105 25.6751 13.5732 25.3217 14.011 25.3217H30.7802C30.3862 24.3059 30.1235 23.1576 30.0797 21.9651C30.0359 19.2709 30.9992 16.6209 32.7943 14.4567ZM25.351 18.5642H14.011C13.5732 18.5642 13.2667 18.2109 13.3105 17.7251C13.3105 17.7251 13.3981 16.9742 13.7483 16.2676C14.0548 15.5609 14.5364 14.8984 15.1056 14.3684C15.6748 13.8384 16.4192 13.3526 17.251 12.9992C18.0829 12.6459 19.0462 12.4692 20.1408 12.4692C21.9359 12.4692 23.3808 13.0434 24.5191 14.2359C25.6575 15.4284 26.0078 17.7251 26.0078 17.7251C26.1392 18.2109 25.8327 18.5642 25.351 18.5642Z" fill="#E61423"/>
<path d="M49.4323 15.7818C48.8631 14.3684 48.0312 13.1759 46.9367 12.2043C44.9664 10.5259 42.3831 9.81925 39.6248 10.2168C37.5669 10.5259 35.5967 11.4534 33.9767 12.8668C34.2831 13.4851 34.5896 14.1476 34.8523 14.8543C36.6037 12.9551 39.0556 11.8509 41.4637 11.8509C43.215 11.8509 44.8788 12.4251 46.1486 13.5293C46.9804 14.2359 47.6372 15.1193 48.075 16.1793C48.7318 17.8576 48.8631 19.8009 48.3815 21.7001C48.0313 23.0693 47.3745 24.3501 46.455 25.4543C43.3026 29.2084 38.0923 30.0034 34.7648 27.2209C34.108 26.6909 33.5826 26.0284 33.1886 25.2776H30.5615C31.0869 26.6468 31.9626 27.8834 33.101 28.8551C34.721 30.2243 36.735 30.9309 38.9242 30.9309C39.4058 30.9309 39.9313 30.8868 40.4129 30.7984C43.0837 30.4009 45.5794 28.9434 47.4183 26.7351C48.5567 25.3659 49.3885 23.6876 49.8264 22.0093C50.3518 19.9334 50.2204 17.7251 49.4323 15.7818Z" fill="#E61423"/>
<path d="M63.3993 14.4124C63.3993 13.9707 63.7495 13.5732 64.2311 13.5732H68.7847C69.2225 13.5732 69.6166 13.9266 69.6166 14.4124V15.6491C69.6166 16.0907 69.6166 16.4882 69.6603 16.4882C69.7041 16.4882 69.923 16.1791 70.2295 15.8257C70.2295 15.8257 70.3609 15.6932 70.7549 15.2957C71.1928 14.8982 71.6744 14.5007 72.2874 14.1916C72.8566 13.8824 73.5133 13.5732 74.1701 13.3966C74.8268 13.2199 75.5711 13.0874 76.3593 13.0874C77.9792 13.0874 79.4241 13.3524 80.7376 13.9266C82.0511 14.5007 83.1895 15.2516 84.109 16.2674C85.0284 17.2832 85.7728 18.4757 86.2982 19.8449C86.8236 21.2141 87.0425 22.7599 87.0425 24.3941C87.0425 25.9399 86.8236 27.3974 86.342 28.8107C85.8603 30.2241 85.2036 31.4607 84.3717 32.5207C83.5398 33.6249 82.489 34.4641 81.263 35.1266C80.0371 35.7891 78.636 36.0982 77.1036 36.0982C75.7025 36.0982 74.389 35.8774 73.163 35.4357C71.9371 34.9941 70.7549 33.8016 70.7549 33.8016C70.4484 33.4924 70.142 33.2274 70.142 33.2274C70.0982 33.2274 70.0982 33.5807 70.0982 34.0666V45.0641C70.0982 45.5057 69.7479 45.9032 69.2663 45.9032H64.1874C63.7495 45.9032 63.3555 45.5499 63.3555 45.0641V14.4124H63.3993ZM69.5728 24.5707C69.5728 26.2491 70.0544 27.5741 70.9739 28.5899C71.8933 29.6057 73.2506 30.1357 74.9582 30.1357C76.6657 30.1357 77.9793 29.6057 78.9425 28.5899C79.862 27.5741 80.3436 26.2049 80.3436 24.5707C80.3436 22.9366 79.862 21.5674 78.9425 20.5516C78.023 19.5357 76.6657 19.0057 74.9582 19.0057C73.2506 19.0057 71.9371 19.5357 70.9739 20.5516C70.0544 21.5674 69.5728 22.8924 69.5728 24.5707Z" fill="#FA8C32"/>
<path d="M104.162 33.6249C104.162 33.1832 104.162 32.7857 104.118 32.7857C104.074 32.7857 103.812 33.0507 103.549 33.404C103.549 33.404 102.367 34.8174 101.097 35.3032C99.8711 35.8332 98.5575 36.054 97.1565 36.054C96.1494 36.054 95.1424 35.9215 94.223 35.6124C93.3035 35.3032 92.4716 34.9057 91.7273 34.3315C91.0267 33.7574 90.4576 33.0507 90.0197 32.2115C89.5819 31.3724 89.4067 30.4007 89.4067 29.2965C89.4067 28.0157 89.6257 26.9557 90.1073 26.0724C90.5889 25.189 91.2019 24.4824 91.99 23.9082C92.7781 23.334 93.6976 22.8924 94.7046 22.5832C95.7116 22.274 96.7624 22.0532 97.857 21.8765C98.9516 21.744 100.046 21.6557 101.141 21.6115C102.235 21.5674 103.33 21.5674 103.33 21.5674C103.768 21.5674 104.074 21.214 103.987 20.7724C103.987 20.7724 103.724 19.4032 102.848 18.6965C102.016 17.9899 101.009 17.6365 99.8273 17.6365C98.7327 17.6365 97.7257 17.8574 96.8062 18.3432C95.8867 18.829 94.9673 19.7124 94.9673 19.7124C94.6608 20.0215 94.0916 20.0215 93.7851 19.6682L91.3332 17.1507C91.0267 16.8415 91.0705 16.3557 91.4208 16.0465C91.4208 16.0465 93.4786 14.5007 95.1424 13.8824C96.8062 13.3082 98.5575 12.999 100.353 12.999C102.323 12.999 103.943 13.264 105.213 13.7499C106.482 14.2357 107.489 14.9865 108.278 15.9582C109.022 16.9299 109.547 18.1224 109.854 19.4915C110.16 20.9049 110.248 23.5107 110.248 23.5107C110.248 23.9524 110.292 24.7032 110.292 25.1449V34.6407C110.292 35.0824 109.941 35.4799 109.46 35.4799H104.906C104.468 35.4799 104.074 35.1265 104.074 34.6407V33.6249H104.162ZM103.33 25.8957C102.892 25.8957 102.148 25.8957 101.71 25.8957C101.71 25.8957 101.403 25.8957 100.615 25.9399C99.8711 25.984 99.1267 26.1165 98.4262 26.3374C97.7257 26.5582 97.1127 26.8674 96.6311 27.2649C96.1494 27.7065 95.8867 28.2807 95.8867 29.0315C95.8867 29.8265 96.237 30.4449 96.9375 30.8424C97.6381 31.2399 98.3386 31.4165 99.083 31.4165C99.7397 31.4165 100.353 31.3282 100.966 31.1515C101.579 30.9749 102.104 30.7099 102.586 30.4007C103.067 30.0915 103.461 29.6499 103.724 29.1199C103.987 28.5899 104.074 28.1482 104.074 28.1482C104.118 27.7065 104.162 26.9999 104.162 26.6024C104.162 26.2049 103.768 25.8957 103.33 25.8957Z" fill="#222222"/>
<path d="M129.688 20.0658C129.381 20.3749 128.856 20.3749 128.593 20.0658C128.593 20.0658 128.331 19.8008 127.761 19.4916C127.148 19.1824 126.536 19.0058 125.835 19.0058C124.127 19.0058 122.814 19.5358 121.851 20.5516C120.931 21.5674 120.45 22.9366 120.45 24.5708C120.45 26.2491 120.931 27.5741 121.851 28.5899C122.77 29.6058 124.127 30.1358 125.835 30.1358C126.579 30.1358 127.236 29.9591 127.761 29.6499C128.287 29.3408 128.55 29.0758 128.55 29.0758C128.856 28.7666 129.381 28.7666 129.688 29.0758L132.972 32.5649C133.278 32.8741 133.234 33.4041 132.884 33.6691C132.884 33.6691 131.264 34.9941 129.819 35.4358C128.418 35.8774 127.061 36.0983 125.747 36.0983C124.084 36.0983 122.507 35.8333 121.019 35.3033C119.53 34.7733 118.26 33.9783 117.166 32.9624C116.071 31.9466 115.239 30.7541 114.583 29.3408C113.97 27.9274 113.663 26.3374 113.663 24.6149C113.663 22.8483 113.97 21.3024 114.583 19.8891C115.196 18.4758 116.071 17.2391 117.166 16.2674C118.26 15.2516 119.53 14.5008 121.019 13.9266C122.507 13.3966 124.084 13.1316 125.747 13.1316C127.017 13.1316 128.374 13.3524 129.819 13.7941C131.22 14.2358 132.884 15.5608 132.884 15.5608C133.234 15.8258 133.278 16.3558 132.972 16.6649L129.688 20.0658Z" fill="#222222"/>
<path d="M136.036 2.22247C136.036 1.7808 136.387 1.3833 136.868 1.3833H141.947C142.385 1.3833 142.779 1.73663 142.779 2.22247V21.435C142.779 21.8766 143.042 21.965 143.305 21.6558L149.653 14.1916C149.96 13.8383 150.573 13.5733 151.011 13.5733H157.622C158.06 13.5733 158.191 13.8383 157.885 14.1916L150.31 22.8483C150.003 23.2016 150.003 23.7758 150.266 24.1291L158.147 34.8616C158.41 35.215 158.279 35.5241 157.797 35.5241H150.967C150.529 35.5241 149.96 35.215 149.697 34.8175L143.261 25.0566C142.998 24.6591 142.779 24.35 142.779 24.35C142.779 24.35 142.735 24.7916 142.735 25.2333V34.685C142.735 35.1266 142.385 35.5241 141.903 35.5241H136.825C136.387 35.5241 135.993 35.1708 135.993 34.685V2.22247H136.036Z" fill="#222222"/>
<path d="M43.9156 14.2801C45.439 14.2801 46.674 13.0343 46.674 11.4976C46.674 9.96086 45.439 8.71509 43.9156 8.71509C42.3922 8.71509 41.1572 9.96086 41.1572 11.4976C41.1572 13.0343 42.3922 14.2801 43.9156 14.2801Z" fill="#E61423"/>
<path d="M57.4011 20.8166C57.4011 20.3749 57.1821 20.2866 56.8756 20.6399L51.2713 27.3974C50.9648 27.7507 51.0962 28.0157 51.5778 28.0157H56.6129C57.0508 28.0157 57.4448 27.6624 57.4448 27.1766V20.8166H57.4011Z" fill="#FA8C32"/>
<path d="M42.8646 19.1824C42.4268 19.1824 42.0327 19.5357 42.0327 20.0215V27.1765C42.0327 27.6182 42.383 28.0157 42.8646 28.0157H48.0311C48.4689 28.0157 49.0819 27.7507 49.3884 27.3974L55.6495 19.8449C55.956 19.4915 55.8246 19.2265 55.343 19.2265H42.8646V19.1824Z" fill="#E61423"/>
<path d="M82.9706 50.5848C82.9706 51.0707 83.0143 51.689 83.0581 51.954H81.6133C81.657 51.689 81.7008 51.0707 81.7008 50.5848V46.4332C80.4749 47.0957 78.9424 47.7582 77.4976 48.1557L76.8408 47.0073C78.8111 46.5657 80.7814 45.6823 82.0511 44.8873C83.2333 44.1365 84.4154 43.1207 85.0722 42.2815L86.0354 43.1648C85.2035 44.004 84.1089 44.9315 82.9706 45.6823V50.5848Z" fill="#333333"/>
<path d="M88.6626 46.345C89.0129 46.3891 89.7572 46.4333 90.3702 46.4333H96.6312C97.2004 46.4333 97.6383 46.3891 97.9448 46.345V47.7583C97.6821 47.7583 97.1567 47.7141 96.675 47.7141H90.3702C89.7134 47.7141 89.0567 47.7583 88.6626 47.7583V46.345Z" fill="#333333"/>
<path d="M102.629 43.6066L103.943 43.8716C103.855 44.1807 103.768 44.6224 103.68 44.8432C103.549 45.5941 103.111 47.2724 102.673 48.4207C102.235 49.5249 101.579 50.7616 100.966 51.6891L99.6958 51.1591C100.44 50.1874 101.097 48.9507 101.491 47.9791C102.016 46.7424 102.454 45.0199 102.629 43.6066ZM105.519 43.8716L106.701 43.4741C107.183 44.3574 107.927 46.0357 108.409 47.2282C108.847 48.3324 109.46 50.1874 109.766 51.2474L108.453 51.6891C108.146 50.4082 107.664 48.8624 107.183 47.6257C106.745 46.4332 106.001 44.7549 105.519 43.8716ZM108.978 41.9724C109.722 41.9724 110.335 42.5907 110.335 43.2974C110.335 44.0482 109.722 44.6224 108.978 44.6224C108.234 44.6224 107.664 44.0482 107.664 43.2974C107.621 42.5907 108.234 41.9724 108.978 41.9724ZM108.978 44.0482C109.372 44.0482 109.722 43.7391 109.722 43.3416C109.722 42.9441 109.372 42.5907 108.978 42.5907C108.584 42.5907 108.277 42.9441 108.277 43.3416C108.234 43.6949 108.584 44.0482 108.978 44.0482Z" fill="#333333"/>
<path d="M114.714 47.9791L113.619 48.3766C113.444 47.7582 112.831 46.1682 112.568 45.7266L113.663 45.3291C113.926 45.9032 114.495 47.3607 114.714 47.9791ZM120.581 45.5057C120.493 45.8149 120.406 45.9916 120.362 46.2124C120.055 47.4491 119.574 48.6857 118.742 49.7016C117.691 51.0707 116.246 51.9982 114.933 52.5282L113.969 51.5566C115.283 51.2032 116.815 50.3199 117.779 49.0832C118.567 48.0674 119.136 46.5657 119.311 45.1082L120.581 45.5057ZM117.297 47.2724L116.202 47.6699C116.071 47.1399 115.546 45.6824 115.283 45.1082L116.378 44.7549C116.553 45.2407 117.122 46.7424 117.297 47.2724Z" fill="#333333"/>
<path d="M132.446 44.2691C132.315 44.4458 132.183 44.7549 132.14 44.9758C131.833 46.0799 131.133 47.6699 130.126 48.9508C129.075 50.2758 127.674 51.3358 125.484 52.1749L124.39 51.2033C126.623 50.5408 127.98 49.4808 129.031 48.2883C129.907 47.3166 130.563 45.8149 130.782 44.8433H127.192C126.448 45.8591 125.484 46.8749 124.258 47.6699L123.251 46.9191C125.266 45.7266 126.316 44.0924 126.886 43.0766C127.017 42.8558 127.236 42.3699 127.323 42.0166L128.681 42.4583C128.462 42.8116 128.199 43.2533 128.068 43.4741C128.024 43.5624 127.98 43.6508 127.893 43.7833H130.651C130.957 43.7833 131.308 43.7391 131.527 43.6508L132.446 44.2691Z" fill="#333333"/>
</svg>
