<svg width="112" height="57" viewBox="0 0 112 57" fill="none" xmlns="http://www.w3.org/2000/svg">
<path d="M3.30387 50.0039L1.56787 41.9958H2.91187L3.69587 46.1958L4.14387 48.7718H4.19987C4.19987 48.6598 4.42387 47.8198 4.75987 46.1958L5.87987 41.9958H7.05587L8.17587 46.1958C8.17587 46.2518 8.28787 46.6439 8.39987 47.2599C8.56787 47.8759 8.67987 48.3798 8.73587 48.7718H8.79187C8.84787 48.4358 8.90387 47.9879 9.01587 47.4279C9.12787 46.8679 9.18387 46.4198 9.23987 46.1958L10.0239 41.9958H11.3119L9.63187 50.0039H8.00787L6.88787 45.5239C6.71987 44.7959 6.60787 44.1798 6.49587 43.6758H6.43987C6.43987 43.7318 6.32787 44.3479 6.04787 45.5239L4.92787 50.0039H3.30387Z" fill="#333333"/>
<path d="M18.4797 49.0519C17.8077 49.8359 16.9117 50.1719 15.7917 50.1719C14.6717 50.1719 13.8317 49.7799 13.1037 49.0519C12.4317 48.2679 12.0957 47.2599 12.0957 45.9719C12.0957 44.6839 12.4317 43.6759 13.1037 42.9479C13.7757 42.2199 14.6717 41.8279 15.7917 41.8279C16.9117 41.8279 17.8077 42.2199 18.4797 42.9479C19.1517 43.6759 19.4877 44.6839 19.4877 45.9719C19.4877 47.2599 19.1517 48.2679 18.4797 49.0519ZM14.1117 48.2119C14.5037 48.7719 15.0637 49.0519 15.7917 49.0519C16.5197 49.0519 17.0797 48.7719 17.4717 48.2119C17.9197 47.6519 18.0877 46.9239 18.0877 45.9719C18.0877 45.0199 17.8637 44.2919 17.4717 43.7319C17.0237 43.1719 16.4637 42.8919 15.7917 42.8919C15.0637 42.8919 14.5037 43.1719 14.1117 43.7319C13.7197 44.2919 13.4957 45.0199 13.4957 45.9719C13.4957 46.9239 13.7197 47.6519 14.1117 48.2119Z" fill="#333333"/>
<path d="M27.3276 50.0039H25.8156L23.9116 46.7558H22.5676V50.0039H21.2236V41.9958H23.9676C25.9836 41.9958 26.9916 42.7798 26.9916 44.2918C26.9916 45.4678 26.4316 46.2519 25.2556 46.5879L27.3276 50.0039ZM22.5116 43.0039V45.7479H23.7996C25.0876 45.7479 25.7036 45.2438 25.7036 44.2918C25.7036 43.8438 25.5356 43.5079 25.2556 43.2839C24.9196 43.0599 24.4716 43.0039 23.7996 43.0039H22.5116Z" fill="#333333"/>
<path d="M28.6719 50.0039V41.9958H30.0159V45.8039H30.0719L33.2639 41.9958H34.7199L32.0879 45.0758L35.1119 50.0039H33.6559L31.2479 46.0839L29.9599 47.5958V50.0039H28.6719Z" fill="#333333"/>
<path d="M38.8077 50.1719C37.6317 50.1719 36.6237 49.7799 35.7837 48.9959L36.5677 48.0999C37.2397 48.7159 37.9677 49.0519 38.8077 49.0519C39.3117 49.0519 39.7037 48.9399 39.9837 48.7159C40.2637 48.4919 40.4317 48.2119 40.4317 47.8759C40.4317 47.7079 40.3757 47.5399 40.3197 47.4279C40.2637 47.3159 40.1517 47.2039 39.9837 47.0919C39.8157 46.9799 39.7037 46.9239 39.5917 46.8679C39.4797 46.8119 39.3117 46.7559 39.0317 46.6439L37.8557 46.1399C36.7357 45.6919 36.1197 44.9639 36.1197 44.0119C36.1197 43.3959 36.3997 42.8359 36.9037 42.4439C37.4077 41.9959 38.0797 41.8279 38.9197 41.8279C39.4237 41.8279 39.8717 41.9399 40.3197 42.1079C40.7677 42.2759 41.1597 42.5559 41.4957 42.8359L40.8237 43.6199C40.2637 43.1159 39.6477 42.8919 38.9757 42.8919C38.5277 42.8919 38.1917 43.0039 37.9117 43.1719C37.6317 43.3399 37.5197 43.6199 37.5197 43.9559C37.5197 44.1239 37.5757 44.2359 37.6317 44.4039C37.6877 44.5159 37.7997 44.6279 37.9677 44.7399C38.1357 44.8519 38.2477 44.9079 38.3597 44.9639C38.4717 45.0199 38.6397 45.0759 38.8637 45.1879L40.0397 45.6359C40.5997 45.8599 40.9917 46.1399 41.3277 46.4759C41.6077 46.8119 41.7757 47.2599 41.7757 47.8199C41.7757 48.4919 41.4957 49.0519 40.9357 49.4999C40.4317 49.9479 39.7037 50.1719 38.8077 50.1719Z" fill="#333333"/>
<path d="M43.2881 50.0039V41.9958H44.6321V45.2999H48.2721V41.9958H49.6161V50.0039H48.2721V46.3639H44.6321V50.0039H43.2881Z" fill="#333333"/>
<path d="M57.5681 49.0519C56.8961 49.8359 56.0001 50.1719 54.8801 50.1719C53.7601 50.1719 52.9201 49.7799 52.1921 49.0519C51.5201 48.2679 51.1841 47.2599 51.1841 45.9719C51.1841 44.6839 51.5201 43.6759 52.1921 42.9479C52.8641 42.2199 53.7601 41.8279 54.8801 41.8279C56.0001 41.8279 56.8961 42.2199 57.5681 42.9479C58.2401 43.6759 58.5761 44.6839 58.5761 45.9719C58.5761 47.2599 58.2401 48.2679 57.5681 49.0519ZM53.2561 48.2119C53.6481 48.7719 54.2081 49.0519 54.9361 49.0519C55.6641 49.0519 56.2241 48.7719 56.6161 48.2119C57.0641 47.6519 57.2321 46.9239 57.2321 45.9719C57.2321 45.0199 57.0081 44.2919 56.6161 43.7319C56.1681 43.1719 55.6081 42.8919 54.9361 42.8919C54.2081 42.8919 53.6481 43.1719 53.2561 43.7319C52.8641 44.2919 52.6401 45.0199 52.6401 45.9719C52.5841 46.9239 52.8081 47.6519 53.2561 48.2119Z" fill="#333333"/>
<path d="M60.2559 50.0039V41.9958H62.8319C64.9599 41.9958 66.0239 42.7799 66.0239 44.4039C66.0239 45.2439 65.7439 45.8599 65.1839 46.3079C64.6239 46.7559 63.8399 46.9799 62.8879 46.9799H61.5999V50.0039H60.2559ZM61.5999 45.9718H62.7759C63.4479 45.9718 63.9519 45.8599 64.2879 45.5799C64.6239 45.3559 64.7919 44.9639 64.7919 44.4039C64.7919 43.8999 64.6239 43.5079 64.2879 43.3399C63.9519 43.1159 63.4479 43.0039 62.7199 43.0039H61.5999V45.9718Z" fill="#333333"/>
<path d="M70.2798 50.0039V41.9959H71.6238L74.4238 46.6999L75.3198 48.3799H75.3758C75.2638 46.9799 75.2078 46.0839 75.2078 45.6919V41.9399H76.4398V49.9479H75.0958L72.2958 45.2439L71.3998 43.5639H71.3438C71.4558 44.9639 71.5118 45.8039 71.5118 46.1959V50.0039H70.2798Z" fill="#333333"/>
<path d="M78.5679 50.0039V41.9958H83.5519V43.0599H79.9119V45.2999H82.9919V46.3639H79.9119V48.9399H83.7199V50.0039H78.5679Z" fill="#333333"/>
<path d="M87.2477 50.0039V43.0599H84.7837V41.9958H91.1117V43.0599H88.6477V50.0039H87.2477Z" fill="#333333"/>
<path d="M95.984 44.2359C95.816 44.2359 95.648 44.1799 95.48 44.0679C95.368 43.9559 95.312 43.7879 95.312 43.6199C95.312 43.4519 95.368 43.2839 95.48 43.1719C95.592 43.0599 95.76 43.0039 95.984 43.0039C96.208 43.0039 96.376 43.0599 96.488 43.1719C96.6 43.2839 96.656 43.4519 96.656 43.6199C96.656 43.7879 96.6 43.9559 96.488 44.0679C96.376 44.1799 96.208 44.2359 95.984 44.2359ZM95.48 50.0039V45.1319H96.544V50.0039H95.48Z" fill="#333333"/>
<path d="M98.0562 50.0039V45.1319H98.9521L99.0641 45.8039C99.3441 45.5239 99.6241 45.3559 99.9041 45.1879C100.184 45.0199 100.464 44.9639 100.8 44.9639C101.864 44.9639 102.368 45.6359 102.368 46.9239V50.0039H101.304V47.0359C101.304 46.5879 101.248 46.3079 101.08 46.1399C100.968 45.9719 100.744 45.8599 100.408 45.8599C100.184 45.8599 99.9601 45.9159 99.7921 46.0279C99.6241 46.1399 99.4001 46.3079 99.1201 46.5319V50.0039H98.0562Z" fill="#333333"/>
<path d="M105.896 50.1159C105.168 50.1159 104.608 49.8919 104.16 49.4439C103.712 48.9959 103.488 48.3799 103.488 47.5959C103.488 46.8119 103.712 46.1959 104.216 45.7479C104.72 45.2999 105.336 45.0759 106.008 45.0759C106.568 45.0759 107.072 45.2439 107.52 45.6359L106.96 46.3079C106.68 46.0279 106.344 45.9159 106.064 45.9159C105.616 45.9159 105.28 46.0839 105 46.3639C104.72 46.6999 104.608 47.0919 104.608 47.5959C104.608 48.0999 104.72 48.5479 105 48.8279C105.28 49.1639 105.616 49.2759 106.064 49.2759C106.456 49.2759 106.848 49.1079 107.184 48.8279L107.632 49.4999C107.128 49.9479 106.568 50.1159 105.896 50.1159Z" fill="#333333"/>
<path d="M109.872 49.9478C109.76 50.0598 109.592 50.1718 109.368 50.1718C109.144 50.1718 108.976 50.1158 108.864 49.9478C108.752 49.8358 108.64 49.6678 108.64 49.4438C108.64 49.2198 108.696 49.0518 108.864 48.9398C108.976 48.8278 109.2 48.7158 109.368 48.7158C109.592 48.7158 109.76 48.7718 109.872 48.9398C109.984 49.0518 110.096 49.2758 110.096 49.4438C110.096 49.6118 109.984 49.7798 109.872 49.9478Z" fill="#333333"/>
<path d="M25.8719 22.844H25.8159L21.7279 6.77197H16.2959L23.4079 31.188H28.2239L31.2479 21.668L28.7279 13.828L25.8719 22.844Z" fill="#3A3A3A"/>
<path d="M28.7837 6.77197H33.7677L38.8637 22.844H38.9197L43.0077 6.77197H48.4397L41.3277 31.188H36.5117L28.7837 6.77197Z" fill="#494949"/>
<path d="M72.688 6.77197H80.024L90.384 23.74H90.44V6.77197H95.816V31.188H88.76L78.12 13.828H78.064V31.188H72.688V6.77197Z" fill="#646464"/>
<path d="M70.5599 6.77197H68.2079H50.6799L46.0879 22.62H56.8959V12.428H70.5039H72.7439V6.77197H70.5599Z" fill="#646464"/>
<path d="M70.5039 15.3401H59.8079V25.4761H45.2479L43.5679 31.1881H70.5039V15.3401Z" fill="#494949"/>
</svg>
