<svg width="18" height="18" viewBox="0 0 18 18" fill="none" xmlns="http://www.w3.org/2000/svg">
<path d="M10.6005 5.79995C10.6005 5.6585 10.5443 5.52284 10.4443 5.42282C10.3443 5.32279 10.2086 5.2666 10.0671 5.2666C9.92569 5.2666 9.79003 5.32279 9.69 5.42282C9.58998 5.52284 9.53379 5.6585 9.53379 5.79995V7.4H7.93374C7.79229 7.4 7.65663 7.45619 7.55661 7.55622C7.45658 7.65624 7.40039 7.7919 7.40039 7.93335C7.40039 8.0748 7.45658 8.21046 7.55661 8.31049C7.65663 8.41051 7.79229 8.4667 7.93374 8.4667H9.53379V10.0667C9.53379 10.2082 9.58998 10.3439 9.69 10.4439C9.79003 10.5439 9.92569 10.6001 10.0671 10.6001C10.2086 10.6001 10.3443 10.5439 10.4443 10.4439C10.5443 10.3439 10.6005 10.2082 10.6005 10.0667V8.4667H12.2005C12.342 8.4667 12.4777 8.41051 12.5777 8.31049C12.6777 8.21046 12.7339 8.0748 12.7339 7.93335C12.7339 7.7919 12.6777 7.65624 12.5777 7.55622C12.4777 7.45619 12.342 7.4 12.2005 7.4H10.6005V5.79995Z" fill="white"/>
<path d="M1.53335 1C1.3919 1 1.25624 1.05619 1.15621 1.15621C1.05619 1.25624 1 1.3919 1 1.53335C1 1.6748 1.05619 1.81046 1.15621 1.91049C1.25624 2.01051 1.3919 2.0667 1.53335 2.0667H2.71739L3.14513 3.78089L4.74305 12.2985C4.76593 12.4207 4.83079 12.5311 4.92643 12.6106C5.02206 12.69 5.14246 12.7336 5.2668 12.7337H6.3335C5.76769 12.7337 5.22505 12.9585 4.82496 13.3586C4.42487 13.7586 4.2001 14.3013 4.2001 14.8671C4.2001 15.4329 4.42487 15.9755 4.82496 16.3756C5.22505 16.7757 5.76769 17.0005 6.3335 17.0005C6.89931 17.0005 7.44195 16.7757 7.84204 16.3756C8.24213 15.9755 8.4669 15.4329 8.4669 14.8671C8.4669 14.3013 8.24213 13.7586 7.84204 13.3586C7.44195 12.9585 6.89931 12.7337 6.3335 12.7337H13.8004C13.2346 12.7337 12.6919 12.9585 12.2919 13.3586C11.8918 13.7586 11.667 14.3013 11.667 14.8671C11.667 15.4329 11.8918 15.9755 12.2919 16.3756C12.6919 16.7757 13.2346 17.0005 13.8004 17.0005C14.3662 17.0005 14.9088 16.7757 15.3089 16.3756C15.709 15.9755 15.9338 15.4329 15.9338 14.8671C15.9338 14.3013 15.709 13.7586 15.3089 13.3586C14.9088 12.9585 14.3662 12.7337 13.8004 12.7337H14.8671C14.9914 12.7336 15.1118 12.69 15.2075 12.6106C15.3031 12.5311 15.368 12.4207 15.3908 12.2985L16.9909 3.76489C17.0053 3.68791 17.0026 3.6087 16.9829 3.5329C16.9633 3.45709 16.9272 3.38654 16.8772 3.32626C16.8272 3.26598 16.7645 3.21745 16.6937 3.18412C16.6228 3.15079 16.5455 3.13347 16.4671 3.1334H4.08276L3.65075 1.40428C3.62196 1.28885 3.5554 1.18635 3.46166 1.1131C3.36791 1.03984 3.25237 1.00003 3.1334 1H1.53335ZM5.70948 11.667L4.3089 4.2001H15.825L14.4244 11.667H5.70948ZM7.4002 14.8671C7.4002 15.15 7.28781 15.4213 7.08777 15.6214C6.88772 15.8214 6.6164 15.9338 6.3335 15.9338C6.05059 15.9338 5.77927 15.8214 5.57923 15.6214C5.37918 15.4213 5.2668 15.15 5.2668 14.8671C5.2668 14.5842 5.37918 14.3129 5.57923 14.1128C5.77927 13.9128 6.05059 13.8004 6.3335 13.8004C6.6164 13.8004 6.88772 13.9128 7.08777 14.1128C7.28781 14.3129 7.4002 14.5842 7.4002 14.8671ZM14.8671 14.8671C14.8671 15.15 14.7547 15.4213 14.5547 15.6214C14.3546 15.8214 14.0833 15.9338 13.8004 15.9338C13.5175 15.9338 13.2462 15.8214 13.0461 15.6214C12.8461 15.4213 12.7337 15.15 12.7337 14.8671C12.7337 14.5842 12.8461 14.3129 13.0461 14.1128C13.2462 13.9128 13.5175 13.8004 13.8004 13.8004C14.0833 13.8004 14.3546 13.9128 14.5547 14.1128C14.7547 14.3129 14.8671 14.5842 14.8671 14.8671Z" fill="white"/>
</svg>
