<svg width="24" height="24" viewBox="0 0 24 24" fill="none" xmlns="http://www.w3.org/2000/svg">
<path d="M8.00012 19V7.59998L4.9386 9.28076L3.92712 7.54999L8.20788 5.01147H8.84234C8.90002 5.84869 9.22662 6.55609 9.82214 7.13373C10.4178 7.71124 11.1438 8 12.0001 8C12.8564 8 13.5825 7.71124 14.1781 7.13373C14.7736 6.55609 15.1002 5.84869 15.1579 5.01147H15.7924L20.0731 7.54999L19.0616 9.28076L16.0001 7.59998V13.2001H17.0001V9.28278L18.7886 10.2635C18.9873 10.3712 19.1805 10.4022 19.3683 10.3568C19.5562 10.3112 19.704 10.1911 19.8116 9.99628L21.0424 7.84222C21.15 7.6474 21.1802 7.4519 21.1329 7.25574C21.0854 7.05957 20.9642 6.90765 20.7693 6.79999L16.0193 4H14.8079C14.6194 4 14.4697 4.05542 14.3589 4.16626C14.2479 4.27722 14.1924 4.427 14.1924 4.61548V4.80774C14.1924 5.39624 13.9741 5.90875 13.5376 6.34528C13.1011 6.78174 12.5886 7 12.0001 7C11.4116 7 10.8991 6.78174 10.4626 6.34528C10.0261 5.90875 9.80786 5.39624 9.80786 4.80774V4.61548C9.80786 4.427 9.75238 4.27722 9.64135 4.16626C9.53051 4.05542 9.38086 4 9.19238 4H7.98089L3.23089 6.79999C3.03601 6.90765 2.91485 7.05957 2.86737 7.25574C2.82007 7.4519 2.85022 7.6474 2.95788 7.84222L4.1886 9.99628C4.29626 10.1911 4.44494 10.3122 4.63464 10.3595C4.82446 10.407 5.01678 10.3769 5.21161 10.2692L7.00012 9.27698V19.2308C7.00012 19.4499 7.07354 19.6329 7.2204 19.7797C7.36718 19.9266 7.55023 20 7.76935 20H12.9723V19H8.00012Z" fill="#212222"/>
<path d="M17.5807 20.9846L17.4729 20.1191C17.0934 20.0357 16.7809 19.9194 16.5354 19.7701C16.2899 19.6207 16.0563 19.4346 15.8344 19.2116L15.0384 19.5653L14.4614 18.7113L15.1692 18.1346C15.046 17.7731 14.9844 17.4282 14.9844 17.0998C14.9844 16.7717 15.046 16.4268 15.1692 16.0653L14.4614 15.4883L15.0384 14.6346L15.8344 14.9883C16.0563 14.7653 16.2899 14.5792 16.5354 14.4298C16.7809 14.2803 17.0934 14.1639 17.4729 14.0806L17.5807 13.2153H18.5807L18.6884 14.0806C19.0679 14.1639 19.3804 14.2812 19.6259 14.4326C19.8714 14.5839 20.1051 14.773 20.3269 14.9998L21.1229 14.6346L21.6999 15.4998L20.9922 16.0768C21.1153 16.4307 21.1769 16.7736 21.1769 17.1056C21.1769 17.4377 21.1153 17.7808 20.9922 18.1346L21.6999 18.7113L21.1229 19.5653L20.3269 19.2116C20.1051 19.4346 19.8714 19.6207 19.6259 19.7701C19.3804 19.9194 19.0679 20.0357 18.6884 20.1191L18.5807 20.9846C18.5807 20.9846 17.5807 20.9846 17.5807 20.9846ZM18.0807 19.2538C18.6692 19.2538 19.1753 19.0419 19.5989 18.6181C20.0226 18.1944 20.2344 17.6883 20.2344 17.0998C20.2344 16.5115 20.0226 16.0054 19.5989 15.5816C19.1753 15.1579 18.6692 14.9461 18.0807 14.9461C17.4922 14.9461 16.9861 15.1579 16.5624 15.5816C16.1388 16.0054 15.9269 16.5115 15.9269 17.0998C15.9269 17.6883 16.1388 18.1944 16.5624 18.6181C16.9861 19.0419 17.4922 19.2538 18.0807 19.2538Z" fill="#212222"/>
</svg>
