<svg width="20" height="20" viewBox="0 0 20 20" fill="none" xmlns="http://www.w3.org/2000/svg">
<g clip-path="url(#clip0_488_5899)">
<path d="M18.8281 13.75H20V20H0V13.75H1.17188L2.42188 11.25H1.25V6.25L4.375 0H15.625L18.75 6.25V11.25H17.5781L18.8281 13.75ZM7.5 7.5H5.69336L3.82812 11.25H7.5V7.5ZM8.75 7.5V11.25H11.25V7.5H8.75ZM12.5 7.5V11.25H16.1719L14.3066 7.5H12.5ZM17.5 10V7.5H15.6934L16.9434 10H17.5ZM5.14648 1.25L2.64648 6.25H17.3535L14.8535 1.25H5.14648ZM2.5 10H3.05664L4.30664 7.5H2.5V10ZM3.19336 12.5L2.57812 13.75H17.4219L16.8066 12.5H3.19336ZM18.75 18.75V15H1.25V18.75H18.75ZM12.5 16.25V17.5H7.5V16.25H12.5Z" fill="#212222"/>
<circle cx="16" cy="5" r="4" fill="white"/>
<path d="M18.3415 5.15674C18.3395 4.91644 18.2961 4.66418 18.2115 4.40002L18.8307 3.90778L18.401 3.18073L17.6848 3.50574C17.5347 3.33392 17.3594 3.18842 17.1588 3.06927C16.9581 2.95007 16.7192 2.86157 16.4423 2.80377L16.3348 2H15.4905L15.3885 2.80951C15.1115 2.86353 14.8727 2.95007 14.6722 3.06927C14.4716 3.18842 14.2963 3.33392 14.1462 3.50574L13.4297 3.18073L13 3.90778L13.625 4.40002C13.5403 4.66418 13.498 4.91541 13.498 5.15375C13.498 5.39227 13.5403 5.64355 13.625 5.90778L13 6.4115L13.425 7.13849L14.152 6.802C14.302 6.97369 14.4774 7.11914 14.678 7.23852C14.8787 7.35767 15.1155 7.44415 15.3885 7.49799L15.4905 8.30774H16.3348L16.4423 7.49799C16.7154 7.44415 16.9532 7.35767 17.1558 7.23852C17.3584 7.11914 17.5347 6.97369 17.6848 6.802L18.4115 7.13275L18.8307 6.40576L18.2115 5.91351C18.3 5.64935 18.3433 5.39709 18.3415 5.15674ZM17.0068 6.24298C16.7087 6.54248 16.3458 6.69226 15.9177 6.69226C15.4897 6.69226 15.1259 6.54327 14.8262 6.24524C14.5267 5.94708 14.377 5.58398 14.377 5.15601C14.377 4.72815 14.526 4.36444 14.824 4.06476C15.1222 3.76526 15.4852 3.61548 15.9133 3.61548C16.3412 3.61548 16.705 3.76453 17.0045 4.0625C17.3041 4.36047 17.454 4.72351 17.454 5.15149C17.454 5.57953 17.3049 5.94336 17.0068 6.24298Z" fill="#212222"/>
</g>
<defs>
<clipPath id="clip0_488_5899">
<rect width="20" height="20" fill="white"/>
</clipPath>
</defs>
</svg>
