<svg width="24" height="24" viewBox="0 0 24 24" fill="none" xmlns="http://www.w3.org/2000/svg">
<path d="M21.4201 6.72363C21.4181 6.48334 21.3748 6.23108 21.2901 5.96692L21.9094 5.47467L21.4796 4.74762L20.7634 5.07263C20.6133 4.90082 20.438 4.75531 20.2374 4.63617C20.0367 4.51697 19.7979 4.42847 19.5209 4.37067L19.4134 3.56689H18.5691L18.4671 4.3764C18.1901 4.43042 17.9514 4.51697 17.7509 4.63617C17.5502 4.75531 17.3749 4.90082 17.2249 5.07263L16.5084 4.74762L16.0786 5.47467L16.7036 5.96692C16.619 6.23108 16.5766 6.4823 16.5766 6.72064C16.5766 6.95917 16.619 7.21045 16.7036 7.47467L16.0786 7.97839L16.5036 8.70538L17.2306 8.3689C17.3806 8.54059 17.556 8.68603 17.7566 8.80542C17.9573 8.92456 18.1941 9.01105 18.4671 9.06488L18.5691 9.87463H19.4134L19.5209 9.06488C19.794 9.01105 20.0319 8.92456 20.2344 8.80542C20.437 8.68603 20.6133 8.54059 20.7634 8.3689L21.4901 8.69965L21.9094 7.97266L21.2901 7.48041C21.3786 7.21625 21.4219 6.96399 21.4201 6.72363ZM20.0854 7.80988C19.7874 8.10937 19.4244 8.25915 18.9963 8.25915C18.5684 8.25915 18.2045 8.11017 17.9048 7.81213C17.6053 7.51398 17.4556 7.15088 17.4556 6.7229C17.4556 6.29504 17.6046 5.93133 17.9026 5.63165C18.2008 5.33215 18.5638 5.18237 18.9919 5.18237C19.4199 5.18237 19.7836 5.33142 20.0831 5.62939C20.3828 5.92737 20.5326 6.2904 20.5326 6.71838C20.5326 7.14642 20.3835 7.51025 20.0854 7.80988Z" fill="#212222"/>
<path d="M21.3079 9.64496V15.5H20.6616C20.5193 15.059 20.2296 14.6795 19.7924 14.3615C19.3552 14.0435 18.8604 13.8845 18.3079 13.8845C17.7809 13.8845 17.2924 14.0403 16.8423 14.352C16.3924 14.6635 16.0962 15.0461 15.9539 15.5H8.46161V6H15.1174V5H7.46161V8.61548H5.15387L1.69238 13.2692V16.5H3.30786C3.30786 17.2265 3.56256 17.844 4.0719 18.3525C4.58136 18.8611 5.19995 19.1155 5.92761 19.1155C6.65546 19.1155 7.27252 18.8611 7.77887 18.3525C8.2854 17.844 8.53864 17.2265 8.53864 16.5H15.6924C15.6924 17.2308 15.9471 17.8494 16.4566 18.3558C16.9659 18.8622 17.5845 19.1155 18.3124 19.1155C19.04 19.1155 19.6571 18.8611 20.1636 18.3525C20.67 17.844 20.9231 17.2265 20.9231 16.5H22.3079V9.64496H21.3079ZM2.75012 13.5L5.69238 9.61548H7.46161V13.5H2.75012ZM7.06836 17.6453C6.75488 17.9587 6.37311 18.1155 5.9231 18.1155C5.47314 18.1155 5.09143 17.9587 4.77814 17.6453C4.4646 17.3317 4.30786 16.95 4.30786 16.5C4.30786 16.05 4.4646 15.6683 4.77814 15.3547C5.09143 15.0413 5.47314 14.8845 5.9231 14.8845C6.37311 14.8845 6.75488 15.0413 7.06836 15.3547C7.3819 15.6683 7.53864 16.05 7.53864 16.5C7.53864 16.95 7.3819 17.3317 7.06836 17.6453ZM19.4531 17.6453C19.1396 17.9587 18.7579 18.1155 18.3079 18.1155C17.8578 18.1155 17.4761 17.9587 17.1626 17.6453C16.8491 17.3317 16.6924 16.95 16.6924 16.5C16.6924 16.05 16.8491 15.6683 17.1626 15.3547C17.4761 15.0413 17.8578 14.8845 18.3079 14.8845C18.7579 14.8845 19.1396 15.0413 19.4531 15.3547C19.7665 15.6683 19.9231 16.05 19.9231 16.5C19.9231 16.95 19.7665 17.3317 19.4531 17.6453Z" fill="#212222"/>
</svg>
