<svg width="24" height="24" viewBox="0 0 24 24" fill="none" xmlns="http://www.w3.org/2000/svg">
<path d="M12.0199 20.5304C9.68987 20.5304 7.35987 20.1604 5.14987 19.4204C4.30987 19.1304 3.66987 18.5404 3.38987 17.7704C3.09987 17.0004 3.19987 16.1504 3.65987 15.3904L4.80987 13.4804C5.04987 13.0804 5.26987 12.2804 5.26987 11.8104V8.92041C5.26987 5.20041 8.29987 2.17041 12.0199 2.17041C15.7399 2.17041 18.7699 5.20041 18.7699 8.92041V11.8104C18.7699 12.2704 18.9899 13.0804 19.2299 13.4904L20.3699 15.3904C20.7999 16.1104 20.8799 16.9804 20.5899 17.7704C20.2999 18.5604 19.6699 19.1604 18.8799 19.4204C16.6799 20.1604 14.3499 20.5304 12.0199 20.5304ZM12.0199 3.67041C9.12987 3.67041 6.76987 6.02041 6.76987 8.92041V11.8104C6.76987 12.5404 6.46987 13.6204 6.09987 14.2504L4.94987 16.1604C4.72987 16.5304 4.66987 16.9204 4.79987 17.2504C4.91987 17.5904 5.21987 17.8504 5.62987 17.9904C9.80987 19.3904 14.2399 19.3904 18.4199 17.9904C18.7799 17.8704 19.0599 17.6004 19.1899 17.2404C19.3199 16.8804 19.2899 16.4904 19.0899 16.1604L17.9399 14.2504C17.5599 13.6004 17.2699 12.5304 17.2699 11.8004V8.92041C17.2699 6.02041 14.9199 3.67041 12.0199 3.67041Z" fill="#212222"/>
<path d="M13.8796 3.94018C13.8096 3.94018 13.7396 3.93018 13.6696 3.91018C13.3796 3.83018 13.0996 3.77018 12.8296 3.73018C11.9796 3.62018 11.1596 3.68018 10.3896 3.91018C10.1096 4.00018 9.80962 3.91018 9.61962 3.70018C9.42962 3.49018 9.36963 3.19018 9.47963 2.92018C9.88963 1.87018 10.8896 1.18018 12.0296 1.18018C13.1696 1.18018 14.1696 1.86018 14.5796 2.92018C14.6796 3.19018 14.6296 3.49018 14.4396 3.70018C14.2896 3.86018 14.0796 3.94018 13.8796 3.94018Z" fill="#212222"/>
<path d="M12.0195 22.8101C11.0295 22.8101 10.0695 22.4101 9.36953 21.7101C8.66953 21.0101 8.26953 20.0501 8.26953 19.0601H9.76953C9.76953 19.6501 10.0095 20.2301 10.4295 20.6501C10.8495 21.0701 11.4295 21.3101 12.0195 21.3101C13.2595 21.3101 14.2695 20.3001 14.2695 19.0601H15.7695C15.7695 21.1301 14.0895 22.8101 12.0195 22.8101Z" fill="#212222"/>
<circle cx="18" cy="7" r="4" fill="white"/>
<path d="M20.3415 7.15674C20.3395 6.91644 20.2961 6.66418 20.2115 6.40002L20.8307 5.90778L20.401 5.18073L19.6848 5.50574C19.5347 5.33392 19.3594 5.18842 19.1588 5.06927C18.9581 4.95007 18.7192 4.86157 18.4423 4.80377L18.3348 4H17.4905L17.3885 4.80951C17.1115 4.86353 16.8727 4.95007 16.6722 5.06927C16.4716 5.18842 16.2963 5.33392 16.1462 5.50574L15.4297 5.18073L15 5.90778L15.625 6.40002C15.5403 6.66418 15.498 6.91541 15.498 7.15375C15.498 7.39227 15.5403 7.64355 15.625 7.90778L15 8.4115L15.425 9.13849L16.152 8.802C16.302 8.97369 16.4774 9.11914 16.678 9.23852C16.8787 9.35767 17.1155 9.44415 17.3885 9.49799L17.4905 10.3077H18.3348L18.4423 9.49799C18.7154 9.44415 18.9532 9.35767 19.1558 9.23852C19.3584 9.11914 19.5347 8.97369 19.6848 8.802L20.4115 9.13275L20.8307 8.40576L20.2115 7.91351C20.3 7.64935 20.3433 7.39709 20.3415 7.15674ZM19.0068 8.24298C18.7087 8.54248 18.3458 8.69226 17.9177 8.69226C17.4897 8.69226 17.1259 8.54327 16.8262 8.24524C16.5267 7.94708 16.377 7.58398 16.377 7.15601C16.377 6.72815 16.526 6.36444 16.824 6.06476C17.1222 5.76526 17.4852 5.61548 17.9133 5.61548C18.3412 5.61548 18.705 5.76453 19.0045 6.0625C19.3041 6.36047 19.454 6.72351 19.454 7.15149C19.454 7.57953 19.3049 7.94336 19.0068 8.24298Z" fill="#212222"/>
</svg>
