<svg width="24" height="24" viewBox="0 0 24 24" fill="none" xmlns="http://www.w3.org/2000/svg">
<path d="M15.5 20.5V17.5H11.5V7.5H8.5V10.5H2.5V3.5H8.5V6.5H15.5V3.5H21.5V10.5H15.5V7.5H12.5V16.5H15.5V13.5H21.5V20.5H15.5ZM16.5 9.5H20.5V4.5H16.5V9.5ZM16.5 19.5H20.5V14.5H16.5V19.5ZM3.5 9.5H7.5V4.5H3.5V9.5Z" fill="#212222"/>
<path d="M6.00011 20.8078L5.89236 19.9423C5.51286 19.859 5.20036 19.7427 4.95486 19.5933C4.70936 19.444 4.47569 19.2578 4.25386 19.0348L3.45786 19.3886L2.88086 18.5346L3.58861 17.9578C3.46544 17.5963 3.40386 17.2514 3.40386 16.9231C3.40386 16.5949 3.46544 16.2501 3.58861 15.8886L2.88086 15.3116L3.45786 14.4578L4.25386 14.8116C4.47569 14.5886 4.70936 14.4024 4.95486 14.2531C5.20036 14.1036 5.51286 13.9872 5.89236 13.9038L6.00011 13.0386H7.00011L7.10786 13.9038C7.48736 13.9872 7.79986 14.1045 8.04536 14.2558C8.29086 14.4072 8.52453 14.5962 8.74636 14.8231L9.54236 14.4578L10.1194 15.3231L9.41161 15.9001C9.53478 16.2539 9.59636 16.5968 9.59636 16.9288C9.59636 17.261 9.53478 17.604 9.41161 17.9578L10.1194 18.5346L9.54236 19.3886L8.74636 19.0348C8.52453 19.2578 8.29086 19.444 8.04536 19.5933C7.79986 19.7427 7.48736 19.859 7.10786 19.9423L7.00011 20.8078C7.00011 20.8078 6.00011 20.8078 6.00011 20.8078ZM6.50011 19.0771C7.08861 19.0771 7.59469 18.8652 8.01836 18.4413C8.44202 18.0177 8.65386 17.5116 8.65386 16.9231C8.65386 16.3347 8.44202 15.8287 8.01836 15.4048C7.59469 14.9812 7.08861 14.7693 6.50011 14.7693C5.91161 14.7693 5.40552 14.9812 4.98186 15.4048C4.55819 15.8287 4.34636 16.3347 4.34636 16.9231C4.34636 17.5116 4.55819 18.0177 4.98186 18.4413C5.40552 18.8652 5.91161 19.0771 6.50011 19.0771Z" fill="#212222"/>
</svg>
