<svg width="24" height="24" viewBox="0 0 24 24" fill="none" xmlns="http://www.w3.org/2000/svg">
<path d="M17.3194 21.2453L17.2117 20.3798C16.8322 20.2965 16.5197 20.1802 16.2742 20.0308C16.0287 19.8815 15.795 19.6953 15.5732 19.4723L14.7772 19.8261L14.2002 18.9721L14.9079 18.3953C14.7848 18.0338 14.7232 17.6889 14.7232 17.3606C14.7232 17.0324 14.7848 16.6876 14.9079 16.3261L14.2002 15.7491L14.7772 14.8953L15.5732 15.2491C15.795 15.0261 16.0287 14.8399 16.2742 14.6906C16.5197 14.5411 16.8322 14.4247 17.2117 14.3413L17.3194 13.4761H18.3194L18.4272 14.3413C18.8067 14.4247 19.1192 14.542 19.3647 14.6933C19.6102 14.8447 19.8439 15.0337 20.0657 15.2606L20.8617 14.8953L21.4387 15.7606L20.7309 16.3376C20.8541 16.6914 20.9157 17.0343 20.9157 17.3663C20.9157 17.6985 20.8541 18.0415 20.7309 18.3953L21.4387 18.9721L20.8617 19.8261L20.0657 19.4723C19.8439 19.6953 19.6102 19.8815 19.3647 20.0308C19.1192 20.1802 18.8067 20.2965 18.4272 20.3798L18.3194 21.2453C18.3194 21.2453 17.3194 21.2453 17.3194 21.2453ZM17.8194 19.5146C18.4079 19.5146 18.914 19.3027 19.3377 18.8788C19.7614 18.4552 19.9732 17.9491 19.9732 17.3606C19.9732 16.7722 19.7614 16.2662 19.3377 15.8423C18.914 15.4187 18.4079 15.2068 17.8194 15.2068C17.2309 15.2068 16.7249 15.4187 16.3012 15.8423C15.8775 16.2662 15.6657 16.7722 15.6657 17.3606C15.6657 17.9491 15.8775 18.4552 16.3012 18.8788C16.7249 19.3027 17.2309 19.5146 17.8194 19.5146Z" fill="#212222"/>
<path d="M13.4497 16.2068L9.60663 20.0499C9.49774 20.1588 9.35266 20.2132 9.17139 20.2132C8.99011 20.2132 8.84503 20.1588 8.73615 20.0499L3.94977 15.2635C3.84088 15.1546 3.78644 15.0095 3.78644 14.8282C3.78644 14.647 3.84088 14.5019 3.94977 14.393L5.98938 12.3534L8.27386 14.6379L8.98102 13.9307L6.69653 11.6462L8.81781 9.52496L11.1023 11.8094L11.8094 11.1023L9.52496 8.81781L11.6462 6.69653L13.9307 8.98102L14.6379 8.27386L12.3534 5.98938L14.393 3.94977C14.5019 3.84088 14.647 3.78644 14.8282 3.78644C15.0095 3.78644 15.1546 3.84088 15.2635 3.94977L20.0499 8.73615C20.1588 8.84503 20.2132 8.99011 20.2132 9.17139C20.2132 9.35266 20.1588 9.49774 20.0499 9.60663L16.7263 12.9302C17.0759 12.8446 17.4362 12.7865 17.8191 12.7865C17.966 12.7865 18.1025 12.8135 18.2445 12.8262L20.757 10.3137C21.0825 9.98822 21.2452 9.60742 21.2452 9.17139C21.2452 8.73535 21.0825 8.35455 20.757 8.02905L15.9706 3.24268C15.6451 2.91718 15.2643 2.75439 14.8282 2.75439C14.3922 2.75439 14.0114 2.91718 13.6859 3.24268L3.24268 13.6859C2.91718 14.0114 2.75439 14.3922 2.75439 14.8282C2.75439 15.2643 2.91718 15.6451 3.24268 15.9706L8.02905 20.757C8.35455 21.0825 8.73535 21.2452 9.17139 21.2452C9.60742 21.2452 9.98822 21.0825 10.3137 20.757L13.3456 17.725C13.333 17.583 13.306 17.4465 13.306 17.2996C13.306 16.9167 13.3641 16.5564 13.4497 16.2068Z" fill="#212222"/>
</svg>
