<svg width="24" height="24" viewBox="0 0 24 24" fill="none" xmlns="http://www.w3.org/2000/svg">
<path d="M14.4 7C14.4 5.67452 13.3255 4.6 12 4.6C10.6745 4.6 9.6 5.67452 9.6 7C9.6 8.32548 10.6745 9.4 12 9.4C13.3255 9.4 14.4 8.32548 14.4 7ZM16 7C16 9.20914 14.2091 11 12 11C9.79086 11 8 9.20914 8 7C8 4.79086 9.79086 3 12 3C14.2091 3 16 4.79086 16 7Z" fill="#212222"/>
<path d="M18.4 20.1818C18.4 16.5669 15.5346 13.6364 12 13.6364C8.46543 13.6364 5.6 16.5669 5.6 20.1818C5.6 20.6337 5.24183 21 4.8 21C4.35817 21 4 20.6337 4 20.1818C4 15.6632 7.58177 12 12 12C16.4182 12 20 15.6632 20 20.1818C20 20.6337 19.6418 21 19.2 21C18.7582 21 18.4 20.6337 18.4 20.1818Z" fill="#212222"/>
</svg>
