<svg width="24" height="24" viewBox="0 0 24 24" fill="none" xmlns="http://www.w3.org/2000/svg">
<g clip-path="url(#clip0_488_6623)">
<path fill-rule="evenodd" clip-rule="evenodd" d="M4.9775 4.5H19.0225L20.7475 10.825C20.727 11.1487 20.5815 11.4518 20.3417 11.6702C20.102 11.8886 19.7867 12.0053 19.4625 11.9955C19.1383 11.9858 18.8306 11.8504 18.6043 11.618C18.3781 11.3856 18.251 11.0743 18.25 10.75H17C17 11.0815 16.8683 11.3995 16.6339 11.6339C16.3995 11.8683 16.0815 12 15.75 12C15.4185 12 15.1005 11.8683 14.8661 11.6339C14.6317 11.3995 14.5 11.0815 14.5 10.75H13.25C13.25 11.0815 13.1183 11.3995 12.8839 11.6339C12.6495 11.8683 12.3315 12 12 12C11.6685 12 11.3505 11.8683 11.1161 11.6339C10.8817 11.3995 10.75 11.0815 10.75 10.75H9.5C9.5 11.0815 9.3683 11.3995 9.13388 11.6339C8.89946 11.8683 8.58152 12 8.25 12C7.91848 12 7.60054 11.8683 7.36612 11.6339C7.1317 11.3995 7 11.0815 7 10.75H5.75C5.74898 11.0743 5.62193 11.3856 5.39569 11.618C5.16945 11.8504 4.86173 11.9858 4.53753 11.9955C4.21333 12.0053 3.89804 11.8886 3.65826 11.6702C3.41847 11.4518 3.27298 11.1487 3.2525 10.825L4.9775 4.5ZM19.5 18.875C19.5 19.3723 19.3025 19.8492 18.9508 20.2008C18.5992 20.5525 18.1223 20.75 17.625 20.75H14.5V18.25C14.5 17.587 14.2366 16.9511 13.7678 16.4822C13.2989 16.0134 12.663 15.75 12 15.75C11.337 15.75 10.7011 16.0134 10.2322 16.4822C9.76339 16.9511 9.5 17.587 9.5 18.25V20.75H6.375C5.87772 20.75 5.40081 20.5525 5.04917 20.2008C4.69754 19.8492 4.5 19.3723 4.5 18.875V13.25C5.24625 13.25 5.9175 12.9225 6.375 12.4037C6.8325 12.9225 7.50375 13.25 8.25 13.25C8.99625 13.25 9.6675 12.9225 10.125 12.4037C10.5825 12.9225 11.2537 13.25 12 13.25C12.7463 13.25 13.4175 12.9225 13.875 12.4037C14.3325 12.9225 15.0037 13.25 15.75 13.25C16.4963 13.25 17.1675 12.9225 17.625 12.4037C18.0825 12.9225 18.7537 13.25 19.5 13.25V18.875ZM10.75 20.75V18.25C10.75 17.9185 10.8817 17.6005 11.1161 17.3661C11.3505 17.1317 11.6685 17 12 17C12.3315 17 12.6495 17.1317 12.8839 17.3661C13.1183 17.6005 13.25 17.9185 13.25 18.25V20.75H10.75ZM17.625 22C18.4538 22 19.2487 21.6708 19.8347 21.0847C20.4208 20.4987 20.75 19.7038 20.75 18.875V12.915C21.4975 12.4838 22 11.675 22 10.75L19.9775 3.25H4.0225L2 10.75C2.00001 11.1888 2.11553 11.6199 2.33495 12C2.55437 12.38 2.86996 12.6956 3.25 12.915V18.875C3.25 19.7038 3.57924 20.4987 4.16529 21.0847C4.75134 21.6708 5.5462 22 6.375 22H17.625Z" fill="#212222"/>
<circle cx="18" cy="6" r="4" fill="white"/>
<path d="M20.3415 6.15674C20.3395 5.91644 20.2961 5.66418 20.2115 5.40002L20.8307 4.90778L20.401 4.18073L19.6848 4.50574C19.5347 4.33392 19.3594 4.18842 19.1588 4.06927C18.9581 3.95007 18.7192 3.86157 18.4423 3.80377L18.3348 3H17.4905L17.3885 3.80951C17.1115 3.86353 16.8727 3.95007 16.6722 4.06927C16.4716 4.18842 16.2963 4.33392 16.1462 4.50574L15.4297 4.18073L15 4.90778L15.625 5.40002C15.5403 5.66418 15.498 5.91541 15.498 6.15375C15.498 6.39227 15.5403 6.64355 15.625 6.90778L15 7.4115L15.425 8.13849L16.152 7.802C16.302 7.97369 16.4774 8.11914 16.678 8.23852C16.8787 8.35767 17.1155 8.44415 17.3885 8.49799L17.4905 9.30774H18.3348L18.4423 8.49799C18.7154 8.44415 18.9532 8.35767 19.1558 8.23852C19.3584 8.11914 19.5347 7.97369 19.6848 7.802L20.4115 8.13275L20.8307 7.40576L20.2115 6.91351C20.3 6.64935 20.3433 6.39709 20.3415 6.15674ZM19.0068 7.24298C18.7087 7.54248 18.3458 7.69226 17.9177 7.69226C17.4897 7.69226 17.1259 7.54327 16.8262 7.24524C16.5267 6.94708 16.377 6.58398 16.377 6.15601C16.377 5.72815 16.526 5.36444 16.824 5.06476C17.1222 4.76526 17.4852 4.61548 17.9133 4.61548C18.3412 4.61548 18.705 4.76453 19.0045 5.0625C19.3041 5.36047 19.454 5.72351 19.454 6.15149C19.454 6.57953 19.3049 6.94336 19.0068 7.24298Z" fill="#212222"/>
</g>
<defs>
<clipPath id="clip0_488_6623">
<rect width="20" height="20" fill="white" transform="translate(2 2)"/>
</clipPath>
</defs>
</svg>
