<svg xmlns="http://www.w3.org/2000/svg" width="18" height="18" viewBox="0 0 18 18">
  <g id="account-circle" transform="translate(0 -1.32)">
    <path id="Path_157" data-name="Path 157" d="M9,1.32a8.662,8.662,0,0,1,6.365,2.641A8.679,8.679,0,0,1,18,10.32a8.679,8.679,0,0,1-2.635,6.359A8.662,8.662,0,0,1,9,19.32a8.662,8.662,0,0,1-6.365-2.641A8.679,8.679,0,0,1,0,10.32,8.679,8.679,0,0,1,2.635,3.961,8.662,8.662,0,0,1,9,1.32Zm0,2.7a2.649,2.649,0,0,0-1.918.782,2.557,2.557,0,0,0-.8,1.9,2.626,2.626,0,0,0,.8,1.923A2.614,2.614,0,0,0,9,9.433a2.545,2.545,0,0,0,1.9-.8,2.662,2.662,0,0,0,.78-1.923A2.666,2.666,0,0,0,9,4.024Zm0,12.8a6.25,6.25,0,0,0,3.077-.782,6.427,6.427,0,0,0,2.3-2.134,1.834,1.834,0,0,0-.991-1.5,7.336,7.336,0,0,0-2.192-.972A8.659,8.659,0,0,0,9,11.123a8.659,8.659,0,0,0-2.192.317,7.336,7.336,0,0,0-2.192.972,1.958,1.958,0,0,0-1.033,1.5A6.453,6.453,0,0,0,9,16.827Z" fill="#8a8a8a"/>
  </g>
</svg>
