<svg xmlns="http://www.w3.org/2000/svg" width="20.537" height="19.803" viewBox="0 0 20.537 19.803">
  <g id="calendar" transform="translate(-4.167 -3.75)">
    <path id="Path_7523" data-name="Path 7523" d="M4.167,7.2A2.2,2.2,0,0,1,6.367,5H22.5a2.2,2.2,0,0,1,2.2,2.2V9.4H4.167Z" transform="translate(0 0.95)" fill="#8a8a8a"/>
    <path id="Path_7524" data-name="Path 7524" d="M13.65,3.75a.734.734,0,0,1,.733.733V7.417a.733.733,0,1,1-1.467,0V4.483A.734.734,0,0,1,13.65,3.75Z" transform="translate(6.653 0)" fill="#8a8a8a" fill-rule="evenodd"/>
    <path id="Path_7525" data-name="Path 7525" d="M6.983,3.75a.733.733,0,0,1,.733.733V7.417a.733.733,0,0,1-1.467,0V4.483A.733.733,0,0,1,6.983,3.75Z" transform="translate(1.584 0)" fill="#8a8a8a" fill-rule="evenodd"/>
    <path id="Path_7526" data-name="Path 7526" d="M4.167,8.333H24.7v9.535a2.2,2.2,0,0,1-2.2,2.2H6.367a2.2,2.2,0,0,1-2.2-2.2Zm15.4,2.934a.734.734,0,0,1,.733-.733H21.77a.733.733,0,0,1,0,1.467H20.3A.734.734,0,0,1,19.569,11.267ZM15.9,10.534A.733.733,0,0,0,15.9,12h1.467a.733.733,0,1,0,0-1.467Zm-5.134.733a.734.734,0,0,1,.733-.733h1.467a.733.733,0,0,1,0,1.467H11.5A.734.734,0,0,1,10.768,11.267ZM7.1,13.468a.733.733,0,0,0,0,1.467H8.567a.733.733,0,1,0,0-1.467Zm12.469.733a.734.734,0,0,1,.733-.733H21.77a.733.733,0,0,1,0,1.467H20.3A.734.734,0,0,1,19.569,14.2ZM15.9,13.468a.733.733,0,0,0,0,1.467h1.467a.733.733,0,1,0,0-1.467Zm-5.134.733a.734.734,0,0,1,.733-.733h1.467a.733.733,0,0,1,0,1.467H11.5A.734.734,0,0,1,10.768,14.2ZM7.1,16.4a.733.733,0,0,0,0,1.467H8.567a.733.733,0,1,0,0-1.467Zm8.068.733A.734.734,0,0,1,15.9,16.4h1.467a.733.733,0,1,1,0,1.467H15.9A.734.734,0,0,1,15.169,17.135ZM11.5,16.4a.733.733,0,1,0,0,1.467h1.467a.733.733,0,1,0,0-1.467Z" transform="translate(0 3.485)" fill="#8a8a8a" fill-rule="evenodd"/>
  </g>
</svg>
