<svg xmlns="http://www.w3.org/2000/svg" width="20" height="20" viewBox="0 0 20 20">
  <g id="Group_6504" data-name="Group 6504" transform="translate(-7 -12)">
    <rect id="Rectangle_2034" data-name="Rectangle 2034" width="20" height="20" transform="translate(7 12)" fill="#26488c" opacity="0"/>
    <g id="download" transform="translate(10 15)">
      <path id="Path_7527" data-name="Path 7527" d="M10.969,11.518a.556.556,0,1,0-.163.386A.527.527,0,0,0,10.969,11.518Zm2.194,0A.556.556,0,1,0,13,11.9.527.527,0,0,0,13.163,11.518Zm1.1-1.92V12.34a.819.819,0,0,1-.823.823H.823a.793.793,0,0,1-.583-.24A.793.793,0,0,1,0,12.34V9.6a.793.793,0,0,1,.24-.583.793.793,0,0,1,.583-.24H4.808L5.964,9.941a1.655,1.655,0,0,0,2.331,0L9.461,8.775h3.976a.819.819,0,0,1,.823.823ZM11.475,4.722a.5.5,0,0,1-.12.6L7.516,9.161a.538.538,0,0,1-.771,0L2.905,5.322a.5.5,0,0,1-.12-.6.512.512,0,0,1,.506-.334H5.485V.548A.527.527,0,0,1,5.647.163.527.527,0,0,1,6.033,0H8.227a.527.527,0,0,1,.386.163.527.527,0,0,1,.163.386V4.388h2.194A.512.512,0,0,1,11.475,4.722Z" transform="translate(0 0)" fill="#0d1526"/>
    </g>
  </g>
</svg>
