<svg xmlns="http://www.w3.org/2000/svg" width="14.755" height="17.214" viewBox="0 0 14.755 17.214">
  <g id="logout" transform="translate(-24 -12)">
    <path id="Path_155" data-name="Path 155" d="M25.23,29.214h7.377a1.231,1.231,0,0,0,1.23-1.23V26.14h-1.23v1.844H25.23V13.23h7.377v1.844h1.23V13.23A1.231,1.231,0,0,0,32.607,12H25.23A1.231,1.231,0,0,0,24,13.23V27.984a1.231,1.231,0,0,0,1.23,1.23Z" transform="translate(0)" fill="#8a8a8a"/>
    <path id="Path_156" data-name="Path 156" d="M66.508,66.508l2.2-2.2H60v-1.23h8.713l-2.2-2.2L67.377,60l3.689,3.689-3.689,3.689Z" transform="translate(-32.311 -43.082)" fill="#8a8a8a"/>
  </g>
</svg>
