<svg xmlns="http://www.w3.org/2000/svg" width="20" height="10" viewBox="0 0 20 10">
  <path id="Path_20" data-name="Path 20" d="M3.333,5.833A1.667,1.667,0,1,0,1.667,4.167,1.672,1.672,0,0,0,3.333,5.833Zm.942.917a5.819,5.819,0,0,0-.942-.083,5.792,5.792,0,0,0-2.317.483A1.676,1.676,0,0,0,0,8.692V10H3.75V8.658A3.749,3.749,0,0,1,4.275,6.75Zm12.392-.917A1.667,1.667,0,1,0,15,4.167,1.672,1.672,0,0,0,16.667,5.833ZM20,8.692A1.676,1.676,0,0,0,18.983,7.15a5.665,5.665,0,0,0-3.258-.4,3.749,3.749,0,0,1,.525,1.908V10H20ZM13.533,6.375A8.7,8.7,0,0,0,10,5.625a8.842,8.842,0,0,0-3.533.75A2.49,2.49,0,0,0,5,8.658V10H15V8.658A2.49,2.49,0,0,0,13.533,6.375ZM10,0a2.5,2.5,0,1,0,2.5,2.5A2.5,2.5,0,0,0,10,0Z" fill="#0d1526"/>
</svg>
