<svg xmlns="http://www.w3.org/2000/svg" width="20" height="20" viewBox="0 0 20 20">
  <g id="Group_1" data-name="Group 1" transform="translate(-227.494)">
    <rect id="Rectangle_1" data-name="Rectangle 1" width="20" height="20" transform="translate(227.494)" fill="rgba(255,255,255,0)"/>
    <path id="attention_icon" data-name="attention icon" d="M8.485,2.495a1.749,1.749,0,0,1,3.03,0L17.8,13.37a1.751,1.751,0,0,1-1.516,2.625H3.72A1.75,1.75,0,0,1,2.2,13.37ZM10,5a.75.75,0,0,1,.75.75v3.5a.75.75,0,0,1-1.5,0V5.75A.75.75,0,0,1,10,5Zm0,9a1,1,0,1,0-1-1A1,1,0,0,0,10,14Z" transform="translate(227.526 1.38)" fill="#facc15" fill-rule="evenodd"/>
  </g>
</svg>
