<svg xmlns="http://www.w3.org/2000/svg" width="19.432" height="17.35" viewBox="0 0 19.432 17.35">
  <g id="dashboard_outline" transform="translate(-3 -5.251)">
    <path id="Path_7522" data-name="Path 7522" d="M21.669,11.184a9.718,9.718,0,1,0-15.2,11.224l.037.03a.7.7,0,0,0,.447.163H18.483a.7.7,0,0,0,.447-.163l.037-.03a9.73,9.73,0,0,0,2.7-11.224Zm-3.544,9.768H7.308a8.068,8.068,0,1,1,10.818,0Zm-2.991-8.99a.174.174,0,0,0-.245,0L13.057,13.8a1.215,1.215,0,1,0,.859.859l1.833-1.833a.174.174,0,0,0,0-.245l-.614-.614Zm-2.9-2.2h.954a.174.174,0,0,0,.174-.174V7.853a.174.174,0,0,0-.174-.174h-.954a.174.174,0,0,0-.174.174V9.588A.174.174,0,0,0,12.239,9.762Zm5.639,4.728v.954a.174.174,0,0,0,.174.174h1.735a.174.174,0,0,0,.174-.174V14.49a.174.174,0,0,0-.174-.174H18.052A.174.174,0,0,0,17.878,14.49Zm.275-4.277-.674-.674a.174.174,0,0,0-.245,0l-1.228,1.228a.174.174,0,0,0,0,.245l.674.674a.174.174,0,0,0,.245,0l1.228-1.228A.174.174,0,0,0,18.154,10.213ZM8.208,9.538a.174.174,0,0,0-.245,0l-.674.674a.174.174,0,0,0,0,.245l1.228,1.228a.174.174,0,0,0,.245,0l.674-.674a.174.174,0,0,0,0-.245Zm-.913,4.778H5.56a.174.174,0,0,0-.174.174v.954a.174.174,0,0,0,.174.174H7.295a.174.174,0,0,0,.174-.174V14.49A.174.174,0,0,0,7.295,14.316Z" transform="translate(0)" fill="#0d1526"/>
  </g>
</svg>
