<svg xmlns="http://www.w3.org/2000/svg" width="128" height="128" viewBox="0 0 128 128">
  <g id="Group_6289" data-name="Group 6289" transform="translate(-2795 -1415)">
    <rect id="Rectangle_117" data-name="Rectangle 117" width="128" height="128" transform="translate(2795 1415)" fill="#fff"/>
    <g id="person" transform="translate(2808.339 1441.637)">
      <g id="Shape_2_13_" transform="translate(0)">
        <g id="Group_6288" data-name="Group 6288">
          <path id="Path_185" data-name="Path 185" d="M99.376,90.771c-2.889-6.69-16.978-11.1-26.3-15.255C63.7,71.36,65.014,68.876,64.659,65.43c-.051-.456-.051-.963-.1-1.47a28.812,28.812,0,0,0,7.552-11.251,2.113,2.113,0,0,0,.1-.3c.355-.963.659-1.977.963-3.041,2.129-.456,3.4-2.787,3.852-4.967a9.936,9.936,0,0,0,1.267-5.474c-.3-3.142-1.571-4.612-2.99-5.22v-.557a80.1,80.1,0,0,0-1.115-13.583,21.719,21.719,0,0,0-.71-3.142A23.065,23.065,0,0,0,65.368,4.663a25.337,25.337,0,0,0-29.294,0,23.065,23.065,0,0,0-8.109,11.758,21.72,21.72,0,0,0-.71,3.142,85.672,85.672,0,0,0-1.115,13.583v.507c-1.47.558-2.787,2.027-3.092,5.271A9.936,9.936,0,0,0,24.316,44.4c.507,2.23,1.774,4.612,4,4.967a26.672,26.672,0,0,0,.963,3.041c0,.051.051.152.051.2l.051.1a27.911,27.911,0,0,0,7.7,11.4,10.7,10.7,0,0,1-.1,1.318c-.355,3.446.659,5.93-8.717,10.086S4.854,84.081,1.966,90.771.242,101.363.242,101.363H101.1S102.265,97.461,99.376,90.771Z" transform="translate(-0.01 0)" fill="#8a8a8a" fill-rule="evenodd"/>
        </g>
      </g>
    </g>
  </g>
</svg>
