<svg xmlns="http://www.w3.org/2000/svg" width="24" height="24" viewBox="0 0 24 24">
  <g id="Group_7372" data-name="Group 7372" transform="translate(-4043 -81)">
    <g id="heart" transform="translate(4046 76.937)">
      <path id="Path_47" data-name="Path 47" d="M17.487,11.035A7.688,7.688,0,0,1,16.19,18a19.722,19.722,0,0,1-3.222,3.4c-1.06.987-3.432,2.939-4.061,2.993a5.152,5.152,0,0,1-1.62-1.058c-2.479-1.885-5.148-4.176-6.5-6.682-1.135-2.406-1.137-5.381.629-7.226a5.22,5.22,0,0,1,7.492.5A5.068,5.068,0,0,1,10.642,8.49,5.22,5.22,0,0,1,17.487,11.035Z" transform="translate(0)" fill="none" stroke="#9ca3af" stroke-width="1.5"/>
    </g>
    <rect id="Rectangle_716" data-name="Rectangle 716" width="24" height="24" transform="translate(4043 81)" fill="none"/>
  </g>
</svg>
