<svg xmlns="http://www.w3.org/2000/svg" width="24" height="24" viewBox="0 0 24 24">
  <g id="Group_7384" data-name="Group 7384" transform="translate(-4065 -366)">
    <g id="Group_7383" data-name="Group 7383">
      <rect id="Rectangle_718" data-name="Rectangle 718" width="24" height="24" transform="translate(4065 366)" fill="none"/>
      <g id="Group_7382" data-name="Group 7382" transform="translate(8.113 35.113)">
        <path id="Path_301" data-name="Path 301" d="M36.584,28.72l-1.474-1.966c.01-.212,0-.453,0-.617l1.474-1.966a.578.578,0,0,0,.1-.5,10.514,10.514,0,0,0-1.041-2.5.588.588,0,0,0-.414-.289L32.8,20.538c-.145-.154-.289-.3-.443-.443l-.347-2.429a.578.578,0,0,0-.279-.414,10.928,10.928,0,0,0-2.506-1.041.578.578,0,0,0-.5.1l-1.956,1.474q-.318-.01-.636,0l-1.956-1.474a.578.578,0,0,0-.5-.1,10.514,10.514,0,0,0-2.5,1.041.588.588,0,0,0-.289.414l-.347,2.429c-.154.145-.3.289-.443.443l-2.429.347a.578.578,0,0,0-.414.279,10.928,10.928,0,0,0-1.041,2.506.578.578,0,0,0,.1.5l1.474,1.966c-.01.212,0,.453,0,.617L16.307,28.72a.578.578,0,0,0-.1.5,10.514,10.514,0,0,0,1.041,2.5.559.559,0,0,0,.414.289l2.429.347.443.443.347,2.429a.588.588,0,0,0,.289.414,10.688,10.688,0,0,0,2.5,1.041l.154.019a.578.578,0,0,0,.347-.116l1.956-1.474h.636l1.956,1.474a.578.578,0,0,0,.5.1,10.755,10.755,0,0,0,2.506-1.041.578.578,0,0,0,.279-.414l.347-2.429c.154-.145.318-.318.434-.443l2.438-.347a.578.578,0,0,0,.414-.279,10.928,10.928,0,0,0,1.041-2.506.578.578,0,0,0-.1-.5ZM34.772,30.9l-2.342.337a.665.665,0,0,0-.347.173c-.116.135-.472.5-.655.665a.6.6,0,0,0-.193.357L30.9,34.772a8.943,8.943,0,0,1-1.715.713l-1.9-1.426a.578.578,0,0,0-.376-.106h-.925a.578.578,0,0,0-.376.106l-1.9,1.426a8.365,8.365,0,0,1-1.715-.713l-.337-2.342a.6.6,0,0,0-.193-.357,6.8,6.8,0,0,1-.646-.646.6.6,0,0,0-.357-.193L18.119,30.9a8.943,8.943,0,0,1-.713-1.715l1.426-1.9a.617.617,0,0,0,.116-.366c-.01-.173-.019-.684-.01-.935a.578.578,0,0,0-.106-.376l-1.426-1.9a8.365,8.365,0,0,1,.713-1.715l2.342-.337a.6.6,0,0,0,.357-.193,6.8,6.8,0,0,1,.646-.646.6.6,0,0,0,.193-.357l.337-2.342a8.943,8.943,0,0,1,1.715-.713l1.9,1.426a.578.578,0,0,0,.376.106q.463-.01.925,0a.578.578,0,0,0,.376-.106l1.9-1.426a8.365,8.365,0,0,1,1.715.713l.337,2.342a.6.6,0,0,0,.193.357,6.8,6.8,0,0,1,.646.646.6.6,0,0,0,.357.193l2.342.337a8.943,8.943,0,0,1,.713,1.715l-1.426,1.9a.617.617,0,0,0-.116.366c.01.173.019.684.01.935a.578.578,0,0,0,.106.376l1.426,1.9a8.364,8.364,0,0,1-.713,1.715Z" transform="translate(4042.441 316.441)" fill="#9ca3af"/>
        <g id="Ellipse_25" data-name="Ellipse 25" transform="translate(4062.407 336.387)" fill="none" stroke="#9ca3af" stroke-width="1">
          <circle cx="6.5" cy="6.5" r="6.5" stroke="none"/>
          <circle cx="6.5" cy="6.5" r="6" fill="none"/>
        </g>
      </g>
    </g>
  </g>
</svg>
