<svg xmlns="http://www.w3.org/2000/svg" width="24" height="24" viewBox="0 0 24 24">
  <g id="Group_7397" data-name="Group 7397" transform="translate(-3531 -184)">
    <rect id="Rectangle_1920" data-name="Rectangle 1920" width="24" height="24" transform="translate(3531 184)" fill="none"/>
    <g id="user" transform="translate(3534.862 184.179)">
      <path id="Path_1145" data-name="Path 1145" d="M14.758,15.776a2.944,2.944,0,0,1,1.149.93,3.648,3.648,0,0,1,.575,1.2,7.731,7.731,0,0,1,.219,1.176,3.231,3.231,0,0,1,0,.848.714.714,0,0,1-.219.438,3.841,3.841,0,0,1-.93.575,9.237,9.237,0,0,1-1.2.438,10.977,10.977,0,0,1-1.341.3l-1.341.219a29.939,29.939,0,0,1-3.228.219A30.139,30.139,0,0,1,5.183,21.9q-.657-.082-1.341-.219t-1.313-.3a6.764,6.764,0,0,1-1.2-.438,5.1,5.1,0,0,1-.958-.575.647.647,0,0,1-.205-.424,4.961,4.961,0,0,1-.014-.862,4.6,4.6,0,0,1,.219-1.176,5.164,5.164,0,0,1,.575-1.2,2.461,2.461,0,0,1,1.149-.93l1.7-.766a10.361,10.361,0,0,0,1.423-.766,3,3,0,0,0,.958-.958,2.7,2.7,0,0,0,.356-1.313v-.164a2.334,2.334,0,0,1-.684-.9L5.21,9.429a5.2,5.2,0,0,1-.739-1.012,1.45,1.45,0,0,1-.219-.711q0-.328.465-.328a7.338,7.338,0,0,1-.082-1.86,3.561,3.561,0,0,1,.328-1.258,1,1,0,0,1,.985-.575,2.483,2.483,0,0,1,.465-.93A2.973,2.973,0,0,1,7.262,2.1a2.824,2.824,0,0,1,1.45-.274,2.326,2.326,0,0,1,1.341.356,4.324,4.324,0,0,1,.9.821,6.268,6.268,0,0,1,.629.9,1.726,1.726,0,0,0,.547.629.73.73,0,0,1,.192.137q.082.082,0,.219A9.372,9.372,0,0,0,12.1,6.009a3.794,3.794,0,0,0,.027,1.368q.492.027.465.328a1.757,1.757,0,0,1-.274.711,6.423,6.423,0,0,1-.766,1.012q-.192.492-.3.848a5.485,5.485,0,0,1-.246.657,2.083,2.083,0,0,1-.274.465,4.28,4.28,0,0,1-.41.41v.164a2.275,2.275,0,0,0,.356,1.313,3.8,3.8,0,0,0,.985.958,7.848,7.848,0,0,0,1.4.766Q13.828,15.338,14.758,15.776Z" fill="none" stroke="#9ca3af" stroke-width="1.2"/>
    </g>
  </g>
</svg>
