<svg width="18" height="18" viewBox="0 0 18 18" fill="none" xmlns="http://www.w3.org/2000/svg">
<path d="M15.4121 5.02499C15.6826 5.91528 15.735 6.8576 15.5648 7.77239C15.3946 8.68718 15.0068 9.5476 14.4341 10.281C13.729 11.2302 12.9132 12.0919 12.0041 12.848C11.1016 13.7494 10.0691 14.5105 8.9411 15.106C8.48686 14.919 8.0722 14.6475 7.7191 14.306C5.76667 12.9688 4.10079 11.2553 2.8191 9.26599C2.35033 8.41432 2.14477 7.44272 2.22844 6.47417C2.3121 5.50562 2.68123 4.58366 3.2891 3.82499C3.68057 3.46995 4.13952 3.19736 4.63858 3.02347C5.13765 2.84958 5.66662 2.77795 6.19396 2.81285C6.7213 2.84776 7.23621 2.98847 7.70801 3.22661C8.17981 3.46476 8.59883 3.79545 8.9401 4.19899C9.28901 3.7422 9.73644 3.36997 10.2491 3.10999C11.1892 2.69093 12.2561 2.65671 13.2211 3.01465C14.1861 3.37259 14.9726 4.09423 15.4121 5.02499Z" stroke="white" stroke-width="1.5"/>
</svg>
