<svg width="16" height="19" viewBox="0 0 16 19" fill="none" xmlns="http://www.w3.org/2000/svg">
<path fill-rule="evenodd" clip-rule="evenodd" d="M5.53846 0.679688C5.87833 0.679688 6.15385 0.955208 6.15385 1.29507V2.32942C6.70293 2.32071 7.31307 2.32071 7.99089 2.32071H8.00911C8.68693 2.32071 9.29707 2.32071 9.84615 2.32942V1.29507C9.84615 0.955208 10.1217 0.679688 10.4615 0.679688C10.8014 0.679688 11.0769 0.955208 11.0769 1.29507V2.37288C12.3175 2.45066 13.2705 2.65167 14.0552 3.22176C14.4557 3.51276 14.808 3.86499 15.0989 4.26552C15.7569 5.17109 15.9232 6.30092 15.9759 7.8381C16 8.54143 16 9.35981 16 10.3117V10.3297C16 11.2816 16 12.1 15.9759 12.8033C15.9232 14.3405 15.7569 15.4703 15.0989 16.3759C14.808 16.7764 14.4557 17.1287 14.0552 17.4196C13.1496 18.0776 12.0198 18.2439 10.4826 18.2966C9.7792 18.3207 8.96082 18.3207 8.00886 18.3207H7.96283C6.45596 18.3207 5.27476 18.3207 4.33762 18.2192C3.38128 18.1156 2.60641 17.9004 1.94481 17.4196C1.54428 17.1287 1.19205 16.7764 0.901046 16.3759C0.420365 15.7143 0.205137 14.9395 0.101522 13.9831C-8.10623e-06 13.046 -8.05956e-06 11.8648 1.45569e-07 10.3578V10.3116C1.45569e-07 9.35981 2.01739e-07 8.54143 0.0240987 7.8381C0.0767674 6.30091 0.243118 5.17109 0.901046 4.26552C1.19205 3.86499 1.54428 3.51276 1.94481 3.22176C2.72948 2.65167 3.68253 2.45066 4.92308 2.37288V1.29507C4.92308 0.955208 5.1986 0.679688 5.53846 0.679688ZM4.92308 3.60666C3.8055 3.68352 3.16043 3.85987 2.66823 4.21748C2.37219 4.43257 2.11185 4.69291 1.89676 4.98895C1.53916 5.48114 1.36281 6.12621 1.28595 7.24379H14.714C14.6372 6.12621 14.4608 5.48114 14.1032 4.98895C13.8882 4.69291 13.6278 4.43257 13.3318 4.21748C12.8395 3.85987 12.1945 3.68352 11.0769 3.60666V3.75661C11.0769 4.09648 10.8014 4.372 10.4615 4.372C10.1217 4.372 9.84615 4.09648 9.84615 3.75661V3.56034C9.30494 3.55152 8.69547 3.55148 8 3.55148C7.30453 3.55148 6.69506 3.55152 6.15385 3.56034V3.75661C6.15385 4.09648 5.87833 4.372 5.53846 4.372C5.1986 4.372 4.92308 4.09648 4.92308 3.75661V3.60666ZM14.7604 8.47456H1.23962C1.23081 9.01577 1.23077 9.62525 1.23077 10.3207C1.23077 11.8728 1.23161 12.9874 1.32513 13.8506C1.41739 14.7022 1.59392 15.2357 1.89676 15.6525C2.11185 15.9485 2.37219 16.2089 2.66823 16.4239C3.08506 16.7268 3.61857 16.9033 4.47019 16.9956C5.33333 17.0891 6.44792 17.0899 8 17.0899C8.69604 17.0899 9.30609 17.0899 9.84763 17.0811C9.85124 16.6916 9.86338 16.4049 9.90425 16.1468C10.224 14.128 11.8073 12.5447 13.8261 12.225C14.0842 12.1841 14.3709 12.172 14.7604 12.1683C14.7692 11.6268 14.7692 11.0168 14.7692 10.3207C14.7692 9.62525 14.7692 9.01577 14.7604 8.47456ZM14.7139 13.3999C14.3816 13.4038 14.1868 13.414 14.0186 13.4405C12.5264 13.6769 11.3562 14.8472 11.1198 16.3393C11.0933 16.5075 11.0831 16.7023 11.0792 17.0346C12.1954 16.9577 12.8399 16.7813 13.3318 16.4239C13.6278 16.2089 13.8882 15.9485 14.1032 15.6525C14.4606 15.1606 14.637 14.5161 14.7139 13.3999ZM4.92308 11.1412C4.92308 10.8014 5.1986 10.5258 5.53846 10.5258H10.4615C10.8014 10.5258 11.0769 10.8014 11.0769 11.1412C11.0769 11.4811 10.8014 11.7566 10.4615 11.7566H5.53846C5.1986 11.7566 4.92308 11.4811 4.92308 11.1412Z" fill="#9E9E9E"/>
</svg>
