<svg width="7" height="11" viewBox="0 0 7 11" fill="none" xmlns="http://www.w3.org/2000/svg">
<path d="M0.250949 10.2689C0.0902666 10.1208 -2.53482e-08 9.9201 -3.44977e-08 9.71078C-4.36472e-08 9.50147 0.0902666 9.30072 0.250949 9.15269L4.49363 5.24523L0.250949 1.33778C0.0948201 1.1889 0.00842813 0.989499 0.010381 0.782525C0.0123338 0.575551 0.102475 0.377563 0.26139 0.231205C0.420304 0.0848465 0.635277 0.00182912 0.860008 3.048e-05C1.08474 -0.00176816 1.30125 0.0777978 1.4629 0.22159L6.31155 4.68714C6.47223 4.83517 6.5625 5.03592 6.5625 5.24523C6.5625 5.45455 6.47223 5.6553 6.31155 5.80333L1.4629 10.2689C1.30217 10.4169 1.0842 10.5 0.856924 10.5C0.62965 10.5 0.411681 10.4169 0.250949 10.2689Z" fill="#9E9E9E"/>
</svg>
