<svg width="8" height="12" viewBox="0 0 8 12" fill="none" xmlns="http://www.w3.org/2000/svg">
<path d="M7.36857 11.5685C7.5326 11.4044 7.62476 11.1819 7.62476 10.9499C7.62476 10.7179 7.5326 10.4954 7.36857 10.3313L3.03732 6.00002L7.36857 1.66877C7.52796 1.50374 7.61615 1.28271 7.61416 1.05329C7.61216 0.823871 7.52014 0.604409 7.35791 0.442178C7.19568 0.279945 6.97622 0.187923 6.74679 0.18593C6.51737 0.183936 6.29634 0.272132 6.13132 0.431519L1.18144 5.38139C1.01741 5.54548 0.925254 5.768 0.925254 6.00002C0.925254 6.23204 1.01741 6.45456 1.18144 6.61864L6.13132 11.5685C6.2954 11.7326 6.51792 11.8247 6.74994 11.8247C6.98196 11.8247 7.20448 11.7326 7.36857 11.5685Z" fill="white"/>
</svg>
